<svg xmlns="http://www.w3.org/2000/svg" width="266.4" height="76.0" viewBox="0 0 266.4 76.0">
<line x1="49.6" y1="68.0" x2="39.6" y2="48.0" stroke="black" stroke-width="1.2" stroke-linecap="round" />
<line x1="59.6" y1="48.0" x2="59.6" y2="28.0" stroke="black" stroke-width="1.2" stroke-linecap="round" />
<line x1="49.6" y1="68.0" x2="59.6" y2="48.0" stroke="black" stroke-width="1.2" stroke-linecap="round" />
<line x1="90.1" y1="48.0" x2="90.1" y2="28.0" stroke="black" stroke-width="1.2" stroke-linecap="round" />
<line x1="90.1" y1="68.0" x2="90.1" y2="48.0" stroke="black" stroke-width="1.2" stroke-linecap="round" />
<line x1="116.7" y1="68.0" x2="116.7" y2="48.0" stroke="black" stroke-width="1.2" stroke-linecap="round" />
<line x1="147.2" y1="68.0" x2="147.2" y2="48.0" stroke="black" stroke-width="1.2" stroke-linecap="round" />
<line x1="173.8" y1="48.0" x2="173.8" y2="28.0" stroke="black" stroke-width="1.2" stroke-linecap="round" />
<line x1="173.8" y1="68.0" x2="173.8" y2="48.0" stroke="black" stroke-width="1.2" stroke-linecap="round" />
<line x1="214.3" y1="68.0" x2="204.3" y2="48.0" stroke="black" stroke-width="1.2" stroke-linecap="round" />
<line x1="224.3" y1="48.0" x2="224.3" y2="28.0" stroke="black" stroke-width="1.2" stroke-linecap="round" />
<line x1="214.3" y1="68.0" x2="224.3" y2="48.0" stroke="black" stroke-width="1.2" stroke-linecap="round" />
<circle cx="13.0" cy="68.0" r="3.5" fill="black" />
<circle cx="39.6" cy="48.0" r="3.5" fill="black" />
<circle cx="59.6" cy="28.0" r="3.5" fill="black" />
<circle cx="59.6" cy="48.0" r="3.5" fill="black" />
<circle cx="49.6" cy="68.0" r="3.5" fill="black" />
<circle cx="90.1" cy="28.0" r="3.5" fill="black" />
<circle cx="90.1" cy="48.0" r="3.5" fill="black" />
<circle cx="90.1" cy="68.0" r="3.5" fill="black" />
<circle cx="116.7" cy="48.0" r="3.5" fill="black" />
<circle cx="116.7" cy="68.0" r="3.5" fill="black" />
<circle cx="147.2" cy="48.0" r="3.5" fill="black" />
<circle cx="147.2" cy="68.0" r="3.5" fill="black" />
<circle cx="173.8" cy="28.0" r="3.5" fill="black" />
<circle cx="173.8" cy="48.0" r="3.5" fill="black" />
<circle cx="173.8" cy="68.0" r="3.5" fill="black" />
<circle cx="204.3" cy="48.0" r="3.5" fill="black" />
<circle cx="224.3" cy="28.0" r="3.5" fill="black" />
<circle cx="224.3" cy="48.0" r="3.5" fill="black" />
<circle cx="214.3" cy="68.0" r="3.5" fill="black" />
<circle cx="250.9" cy="68.0" r="3.5" fill="black" />
<text x="26.3" y="68.0" font-size="11.0" font-family="sans-serif" text-anchor="middle" dominant-baseline="central">⊗</text>
<text x="76.1" y="68.0" font-size="11.0" font-family="sans-serif" text-anchor="middle" dominant-baseline="central">+</text>
<text x="103.4" y="68.0" font-size="11.0" font-family="sans-serif" text-anchor="middle" dominant-baseline="central">⊗</text>
<text x="133.2" y="68.0" font-size="11.0" font-family="sans-serif" text-anchor="middle" dominant-baseline="central">+</text>
<text x="160.5" y="68.0" font-size="11.0" font-family="sans-serif" text-anchor="middle" dominant-baseline="central">⊗</text>
<text x="190.3" y="68.0" font-size="11.0" font-family="sans-serif" text-anchor="middle" dominant-baseline="central">+</text>
<text x="237.6" y="68.0" font-size="11.0" font-family="sans-serif" text-anchor="middle" dominant-baseline="central">⊗</text>
</svg>