<svg xmlns="http://www.w3.org/2000/svg" width="557.6" height="76.0" viewBox="0 0 557.6 76.0">
<line x1="24.6" y1="48.0" x2="24.6" y2="28.0" stroke="black" stroke-width="1.2" stroke-linecap="round" />
<line x1="34.6" y1="68.0" x2="24.6" y2="48.0" stroke="black" stroke-width="1.2" stroke-linecap="round" />
<line x1="34.6" y1="68.0" x2="44.6" y2="48.0" stroke="black" stroke-width="1.2" stroke-linecap="round" />
<line x1="75.1" y1="68.0" x2="75.1" y2="48.0" stroke="black" stroke-width="1.2" stroke-linecap="round" />
<line x1="97.1" y1="68.0" x2="97.1" y2="48.0" stroke="black" stroke-width="1.2" stroke-linecap="round" />
<line x1="171.6" y1="68.0" x2="171.6" y2="48.0" stroke="black" stroke-width="1.2" stroke-linecap="round" />
<line x1="202.1" y1="68.0" x2="202.1" y2="48.0" stroke="black" stroke-width="1.2" stroke-linecap="round" />
<line x1="395.1" y1="48.0" x2="395.1" y2="28.0" stroke="black" stroke-width="1.2" stroke-linecap="round" />
<line x1="395.1" y1="68.0" x2="395.1" y2="48.0" stroke="black" stroke-width="1.2" stroke-linecap="round" />
<line x1="457.6" y1="68.0" x2="447.6" y2="48.0" stroke="black" stroke-width="1.2" stroke-linecap="round" />
<line x1="457.6" y1="68.0" x2="467.6" y2="48.0" stroke="black" stroke-width="1.2" stroke-linecap="round" />
<line x1="542.1" y1="68.0" x2="542.1" y2="48.0" stroke="black" stroke-width="1.2" stroke-linecap="round" />
<circle cx="24.6" cy="28.0" r="3.5" fill="forestgreen" stroke="black" stroke-width="0.8" />
<circle cx="24.6" cy="48.0" r="3.5" fill="mediumblue" stroke="black" stroke-width="0.8" />
<circle cx="44.6" cy="48.0" r="3.5" fill="firebrick" stroke="black" stroke-width="0.8" />
<circle cx="34.6" cy="68.0" r="3.5" fill="black" />
<circle cx="75.1" cy="48.0" r="3.5" fill="forestgreen" stroke="black" stroke-width="0.8" />
<circle cx="75.1" cy="68.0" r="3.5" fill="mediumblue" stroke="black" stroke-width="0.8" />
<circle cx="97.1" cy="48.0" r="3.5" fill="firebrick" stroke="black" stroke-width="0.8" />
<circle cx="97.1" cy="68.0" r="3.5" fill="black" />
<circle cx="127.6" cy="68.0" r="3.5" fill="forestgreen" stroke="black" stroke-width="0.8" />
<circle cx="149.6" cy="68.0" r="3.5" fill="mediumblue" stroke="black" stroke-width="0.8" />
<circle cx="171.6" cy="48.0" r="3.5" fill="firebrick" stroke="black" stroke-width="0.8" />
<circle cx="171.6" cy="68.0" r="3.5" fill="black" />
<circle cx="202.1" cy="48.0" r="3.5" fill="forestgreen" stroke="black" stroke-width="0.8" />
<circle cx="202.1" cy="68.0" r="3.5" fill="mediumblue" stroke="black" stroke-width="0.8" />
<circle cx="224.1" cy="68.0" r="3.5" fill="firebrick" stroke="black" stroke-width="0.8" />
<circle cx="246.1" cy="68.0" r="3.5" fill="black" />
<circle cx="276.6" cy="68.0" r="3.5" fill="forestgreen" stroke="black" stroke-width="0.8" />
<circle cx="298.6" cy="68.0" r="3.5" fill="mediumblue" stroke="black" stroke-width="0.8" />
<circle cx="320.6" cy="68.0" r="3.5" fill="firebrick" stroke="black" stroke-width="0.8" />
<circle cx="342.6" cy="68.0" r="3.5" fill="black" />
<circle cx="373.1" cy="68.0" r="3.5" fill="firebrick" stroke="black" stroke-width="0.8" />
<circle cx="395.1" cy="28.0" r="3.5" fill="forestgreen" stroke="black" stroke-width="0.8" />
<circle cx="395.1" cy="48.0" r="3.5" fill="mediumblue" stroke="black" stroke-width="0.8" />
<circle cx="395.1" cy="68.0" r="3.5" fill="black" />
<circle cx="425.6" cy="68.0" r="3.5" fill="forestgreen" stroke="black" stroke-width="0.8" />
<circle cx="447.6" cy="48.0" r="3.5" fill="mediumblue" stroke="black" stroke-width="0.8" />
<circle cx="467.6" cy="48.0" r="3.5" fill="firebrick" stroke="black" stroke-width="0.8" />
<circle cx="457.6" cy="68.0" r="3.5" fill="black" />
<circle cx="498.1" cy="68.0" r="3.5" fill="forestgreen" stroke="black" stroke-width="0.8" />
<circle cx="520.1" cy="68.0" r="3.5" fill="firebrick" stroke="black" stroke-width="0.8" />
<circle cx="542.1" cy="48.0" r="3.5" fill="mediumblue" stroke="black" stroke-width="0.8" />
<circle cx="542.1" cy="68.0" r="3.5" fill="black" />
<text x="11.3" y="68.0" font-size="11.0" font-family="sans-serif" text-anchor="middle" dominant-baseline="central">−</text>
<text x="61.1" y="68.0" font-size="11.0" font-family="sans-serif" text-anchor="middle" dominant-baseline="central">+</text>
<text x="113.6" y="68.0" font-size="11.0" font-family="sans-serif" text-anchor="middle" dominant-baseline="central">−</text>
<text x="188.1" y="68.0" font-size="11.0" font-family="sans-serif" text-anchor="middle" dominant-baseline="central">−</text>
<text x="262.6" y="68.0" font-size="11.0" font-family="sans-serif" text-anchor="middle" dominant-baseline="central">+</text>
<text x="359.1" y="68.0" font-size="11.0" font-family="sans-serif" text-anchor="middle" dominant-baseline="central">+</text>
<text x="411.6" y="68.0" font-size="11.0" font-family="sans-serif" text-anchor="middle" dominant-baseline="central">+</text>
<text x="484.1" y="68.0" font-size="11.0" font-family="sans-serif" text-anchor="middle" dominant-baseline="central">−</text>
</svg>