<svg xmlns="http://www.w3.org/2000/svg" width="551.2" height="76.0" viewBox="0 0 551.2 76.0">
<line x1="55.4" y1="68.0" x2="45.4" y2="48.0" stroke="black" stroke-width="1.5" stroke-linecap="round" />
<line x1="65.4" y1="48.0" x2="65.4" y2="28.0" stroke="black" stroke-width="1.5" stroke-linecap="round" />
<line x1="55.4" y1="68.0" x2="65.4" y2="48.0" stroke="black" stroke-width="1.5" stroke-linecap="round" />
<line x1="110.8" y1="68.0" x2="110.8" y2="48.0" stroke="black" stroke-width="1.5" stroke-linecap="round" />
<line x1="153.2" y1="68.0" x2="143.2" y2="48.0" stroke="black" stroke-width="1.5" stroke-linecap="round" />
<line x1="153.2" y1="68.0" x2="163.2" y2="48.0" stroke="black" stroke-width="1.5" stroke-linecap="round" />
<line x1="194.2" y1="48.0" x2="194.2" y2="28.0" stroke="black" stroke-width="1.5" stroke-linecap="round" />
<line x1="194.2" y1="68.0" x2="194.2" y2="48.0" stroke="black" stroke-width="1.5" stroke-linecap="round" />
<line x1="226.6" y1="68.0" x2="226.6" y2="48.0" stroke="black" stroke-width="1.5" stroke-linecap="round" />
<line x1="257.6" y1="68.0" x2="257.6" y2="48.0" stroke="black" stroke-width="1.5" stroke-linecap="round" />
<line x1="290.0" y1="48.0" x2="290.0" y2="28.0" stroke="black" stroke-width="1.5" stroke-linecap="round" />
<line x1="290.0" y1="68.0" x2="290.0" y2="48.0" stroke="black" stroke-width="1.5" stroke-linecap="round" />
<line x1="321.0" y1="68.0" x2="321.0" y2="48.0" stroke="black" stroke-width="1.5" stroke-linecap="round" />
<line x1="336.0" y1="68.0" x2="336.0" y2="48.0" stroke="black" stroke-width="1.5" stroke-linecap="round" />
<line x1="368.4" y1="68.0" x2="368.4" y2="48.0" stroke="black" stroke-width="1.5" stroke-linecap="round" />
<line x1="409.4" y1="68.0" x2="399.4" y2="48.0" stroke="black" stroke-width="1.5" stroke-linecap="round" />
<line x1="409.4" y1="68.0" x2="419.4" y2="48.0" stroke="black" stroke-width="1.5" stroke-linecap="round" />
<line x1="451.8" y1="68.0" x2="451.8" y2="48.0" stroke="black" stroke-width="1.5" stroke-linecap="round" />
<line x1="492.8" y1="68.0" x2="482.8" y2="48.0" stroke="black" stroke-width="1.5" stroke-linecap="round" />
<line x1="502.8" y1="48.0" x2="502.8" y2="28.0" stroke="black" stroke-width="1.5" stroke-linecap="round" />
<line x1="492.8" y1="68.0" x2="502.8" y2="48.0" stroke="black" stroke-width="1.5" stroke-linecap="round" />
<circle cx="13.0" cy="68.0" r="4.0" fill="black" />
<circle cx="45.4" cy="48.0" r="4.0" fill="black" />
<circle cx="65.4" cy="28.0" r="4.0" fill="black" />
<circle cx="65.4" cy="48.0" r="4.0" fill="black" />
<circle cx="55.4" cy="68.0" r="4.0" fill="black" />
<circle cx="110.8" cy="48.0" r="4.0" fill="black" />
<circle cx="110.8" cy="68.0" r="4.0" fill="black" />
<circle cx="143.2" cy="48.0" r="4.0" fill="black" />
<circle cx="163.2" cy="48.0" r="4.0" fill="black" />
<circle cx="153.2" cy="68.0" r="4.0" fill="black" />
<circle cx="194.2" cy="28.0" r="4.0" fill="black" />
<circle cx="194.2" cy="48.0" r="4.0" fill="black" />
<circle cx="194.2" cy="68.0" r="4.0" fill="black" />
<circle cx="226.6" cy="48.0" r="4.0" fill="black" />
<circle cx="226.6" cy="68.0" r="4.0" fill="black" />
<circle cx="257.6" cy="48.0" r="4.0" fill="black" />
<circle cx="257.6" cy="68.0" r="4.0" fill="black" />
<circle cx="290.0" cy="28.0" r="4.0" fill="black" />
<circle cx="290.0" cy="48.0" r="4.0" fill="black" />
<circle cx="290.0" cy="68.0" r="4.0" fill="black" />
<circle cx="321.0" cy="48.0" r="4.0" fill="black" />
<circle cx="321.0" cy="68.0" r="4.0" fill="black" />
<circle cx="336.0" cy="48.0" r="4.0" fill="black" />
<circle cx="336.0" cy="68.0" r="4.0" fill="black" />
<circle cx="368.4" cy="48.0" r="4.0" fill="black" />
<circle cx="368.4" cy="68.0" r="4.0" fill="black" />
<circle cx="399.4" cy="48.0" r="4.0" fill="black" />
<circle cx="419.4" cy="48.0" r="4.0" fill="black" />
<circle cx="409.4" cy="68.0" r="4.0" fill="black" />
<circle cx="451.8" cy="48.0" r="4.0" fill="black" />
<circle cx="451.8" cy="68.0" r="4.0" fill="black" />
<circle cx="482.8" cy="48.0" r="4.0" fill="black" />
<circle cx="502.8" cy="28.0" r="4.0" fill="black" />
<circle cx="502.8" cy="48.0" r="4.0" fill="black" />
<circle cx="492.8" cy="68.0" r="4.0" fill="black" />
<circle cx="535.2" cy="68.0" r="4.0" fill="black" />
<text x="29.2" y="68.0" font-size="14.0" font-family="sans-serif" text-anchor="middle" dominant-baseline="central">⊗</text>
<text x="82.4" y="68.0" font-size="14.0" font-family="sans-serif" text-anchor="middle" dominant-baseline="central">+</text>
<text x="95.6" y="68.0" font-size="14.0" font-family="sans-serif" text-anchor="middle" dominant-baseline="central">2</text>
<text x="127.0" y="68.0" font-size="14.0" font-family="sans-serif" text-anchor="middle" dominant-baseline="central">⊗</text>
<text x="180.2" y="68.0" font-size="14.0" font-family="sans-serif" text-anchor="middle" dominant-baseline="central">+</text>
<text x="210.4" y="68.0" font-size="14.0" font-family="sans-serif" text-anchor="middle" dominant-baseline="central">⊗</text>
<text x="243.6" y="68.0" font-size="14.0" font-family="sans-serif" text-anchor="middle" dominant-baseline="central">+</text>
<text x="273.8" y="68.0" font-size="14.0" font-family="sans-serif" text-anchor="middle" dominant-baseline="central">⊗</text>
<text x="307.0" y="68.0" font-size="14.0" font-family="sans-serif" text-anchor="middle" dominant-baseline="central">+</text>
<text x="352.2" y="68.0" font-size="14.0" font-family="sans-serif" text-anchor="middle" dominant-baseline="central">⊗</text>
<text x="385.4" y="68.0" font-size="14.0" font-family="sans-serif" text-anchor="middle" dominant-baseline="central">+</text>
<text x="435.6" y="68.0" font-size="14.0" font-family="sans-serif" text-anchor="middle" dominant-baseline="central">⊗</text>
<text x="468.8" y="68.0" font-size="14.0" font-family="sans-serif" text-anchor="middle" dominant-baseline="central">+</text>
<text x="519.0" y="68.0" font-size="14.0" font-family="sans-serif" text-anchor="middle" dominant-baseline="central">⊗</text>
</svg>