<svg xmlns="http://www.w3.org/2000/svg" width="200.0" height="96.0" viewBox="0 0 200.0 96.0">
<line x1="13.0" y1="48.0" x2="13.0" y2="28.0" stroke="black" stroke-width="1.2" stroke-linecap="round" />
<line x1="13.0" y1="68.0" x2="13.0" y2="48.0" stroke="black" stroke-width="1.2" stroke-linecap="round" />
<line x1="13.0" y1="88.0" x2="13.0" y2="68.0" stroke="black" stroke-width="1.2" stroke-linecap="round" />
<line x1="53.5" y1="68.0" x2="43.5" y2="48.0" stroke="black" stroke-width="1.2" stroke-linecap="round" />
<line x1="53.5" y1="68.0" x2="63.5" y2="48.0" stroke="black" stroke-width="1.2" stroke-linecap="round" />
<line x1="53.5" y1="88.0" x2="53.5" y2="68.0" stroke="black" stroke-width="1.2" stroke-linecap="round" />
<line x1="94.0" y1="68.0" x2="94.0" y2="48.0" stroke="black" stroke-width="1.2" stroke-linecap="round" />
<line x1="104.0" y1="88.0" x2="94.0" y2="68.0" stroke="black" stroke-width="1.2" stroke-linecap="round" />
<line x1="104.0" y1="88.0" x2="114.0" y2="68.0" stroke="black" stroke-width="1.2" stroke-linecap="round" />
<line x1="164.5" y1="88.0" x2="144.5" y2="68.0" stroke="black" stroke-width="1.2" stroke-linecap="round" />
<line x1="164.5" y1="88.0" x2="164.5" y2="68.0" stroke="black" stroke-width="1.2" stroke-linecap="round" />
<line x1="164.5" y1="88.0" x2="184.5" y2="68.0" stroke="black" stroke-width="1.2" stroke-linecap="round" />
<circle cx="13.0" cy="28.0" r="3.5" fill="black" />
<circle cx="13.0" cy="48.0" r="3.5" fill="black" />
<circle cx="13.0" cy="68.0" r="3.5" fill="black" />
<circle cx="13.0" cy="88.0" r="3.5" fill="black" />
<circle cx="43.5" cy="48.0" r="3.5" fill="black" />
<circle cx="63.5" cy="48.0" r="3.5" fill="black" />
<circle cx="53.5" cy="68.0" r="3.5" fill="black" />
<circle cx="53.5" cy="88.0" r="3.5" fill="black" />
<circle cx="94.0" cy="48.0" r="3.5" fill="black" />
<circle cx="94.0" cy="68.0" r="3.5" fill="black" />
<circle cx="114.0" cy="68.0" r="3.5" fill="black" />
<circle cx="104.0" cy="88.0" r="3.5" fill="black" />
<circle cx="144.5" cy="68.0" r="3.5" fill="black" />
<circle cx="164.5" cy="68.0" r="3.5" fill="black" />
<circle cx="184.5" cy="68.0" r="3.5" fill="black" />
<circle cx="164.5" cy="88.0" r="3.5" fill="black" />
<text x="29.5" y="88.0" font-size="11.0" font-family="sans-serif" text-anchor="middle" dominant-baseline="central">+</text>
<text x="80.0" y="88.0" font-size="11.0" font-family="sans-serif" text-anchor="middle" dominant-baseline="central">+</text>
<text x="130.5" y="88.0" font-size="11.0" font-family="sans-serif" text-anchor="middle" dominant-baseline="central">+</text>
</svg>